<svg id="Layer_1" data-name="Layer 1" xmlns="http://www.w3.org/2000/svg" xmlns:xlink="http://www.w3.org/1999/xlink" viewBox="0 0 165.23 24.08"><defs><style>.cls-1{fill:url(#linear-gradient);}.cls-2{fill:url(#linear-gradient-2);}.cls-3{fill:url(#linear-gradient-3);}.cls-4{fill:url(#linear-gradient-4);}.cls-5{fill:url(#linear-gradient-5);}.cls-6{fill:url(#linear-gradient-6);}.cls-7{fill:url(#linear-gradient-7);}.cls-8{fill:url(#linear-gradient-8);}.cls-9{fill:url(#linear-gradient-9);}.cls-10{fill:url(#linear-gradient-10);}.cls-11{fill:url(#linear-gradient-11);}.cls-12{fill:url(#linear-gradient-12);}.cls-13{fill:url(#linear-gradient-13);}.cls-14{fill:url(#linear-gradient-14);}.cls-15{fill:url(#linear-gradient-15);}.cls-16{fill:url(#linear-gradient-16);}.cls-17{fill:url(#linear-gradient-17);}.cls-18{fill:url(#linear-gradient-18);}</style><linearGradient id="linear-gradient" x1="966.71" y1="507.46" x2="1077.02" y2="507.46" gradientTransform="matrix(1, 0, 0, -1, -42.03, 1046.45)" gradientUnits="userSpaceOnUse"><stop offset="0" stop-color="#ff514a"/><stop offset="1" stop-color="#ff0d6e"/></linearGradient><linearGradient id="linear-gradient-2" x1="966.71" y1="507.48" x2="1077.02" y2="507.48" xlink:href="#linear-gradient"/><linearGradient id="linear-gradient-3" x1="966.71" y1="507.29" x2="1077.02" y2="507.29" xlink:href="#linear-gradient"/><linearGradient id="linear-gradient-4" x1="966.71" y1="507.32" x2="1077.02" y2="507.32" xlink:href="#linear-gradient"/><linearGradient id="linear-gradient-5" x1="966.71" y1="507.42" x2="1077.02" y2="507.42" xlink:href="#linear-gradient"/><linearGradient id="linear-gradient-6" x1="966.71" y1="507.38" x2="1077.02" y2="507.38" xlink:href="#linear-gradient"/><linearGradient id="linear-gradient-7" x1="966.71" y1="507.36" x2="1077.02" y2="507.36" xlink:href="#linear-gradient"/><linearGradient id="linear-gradient-8" x1="966.71" y1="507.34" x2="1077.02" y2="507.34" xlink:href="#linear-gradient"/><linearGradient id="linear-gradient-9" x1="966.71" y1="507.39" x2="1077.02" y2="507.39" xlink:href="#linear-gradient"/><linearGradient id="linear-gradient-10" x1="966.71" y1="507.44" x2="1077.02" y2="507.44" xlink:href="#linear-gradient"/><linearGradient id="linear-gradient-11" x1="966.71" y1="507.45" x2="1077.02" y2="507.45" xlink:href="#linear-gradient"/><linearGradient id="linear-gradient-12" x1="966.71" y1="507.44" x2="1077.02" y2="507.44" xlink:href="#linear-gradient"/><linearGradient id="linear-gradient-13" x1="966.71" y1="507.26" x2="1077.02" y2="507.26" xlink:href="#linear-gradient"/><linearGradient id="linear-gradient-14" x1="917.83" y1="507.68" x2="957.65" y2="507.68" xlink:href="#linear-gradient"/><linearGradient id="linear-gradient-15" x1="917.83" y1="507.68" x2="957.65" y2="507.68" xlink:href="#linear-gradient"/><linearGradient id="linear-gradient-16" x1="917.83" y1="507.51" x2="957.65" y2="507.51" xlink:href="#linear-gradient"/><linearGradient id="linear-gradient-17" x1="917.83" y1="507.51" x2="957.65" y2="507.51" xlink:href="#linear-gradient"/><linearGradient id="linear-gradient-18" x1="877.36" y1="540.4" x2="1042.59" y2="540.4" gradientUnits="userSpaceOnUse"><stop offset="0" stop-color="#fd8865"/><stop offset="0.28" stop-color="#fd7f6d"/><stop offset="0.74" stop-color="#fc6582"/><stop offset="0.99" stop-color="#fb5490"/></linearGradient></defs><path class="cls-1" d="M940.47,533.54v14.29a1,1,0,1,1-2.08,0v-6.25h-9v6.25a1,1,0,0,1-2.09,0V533.54a1,1,0,0,1,2.08,0v6h9v-6a1,1,0,0,1,2.08-.1A.34.34,0,0,1,940.47,533.54Z" transform="translate(-877.36 -528.36)"/><path class="cls-2" d="M939.4,549.18a1.36,1.36,0,0,1-1.34-1.35v-6h-8.35v5.94a1.38,1.38,0,0,1-1.36,1.35,1.34,1.34,0,0,1-1.37-1.31h0V533.52a1.35,1.35,0,0,1,2.7,0h0v5.65H938v-5.63a1.34,1.34,0,0,1,1.35-1.35h0a1.33,1.33,0,0,1,1.34,1.32v14.32A1.36,1.36,0,0,1,939.4,549.18Zm-10.31-7.93h9.6v6.56a.76.76,0,0,0,.74.73.73.73,0,0,0,.73-.73h0V533.52a.74.74,0,0,0-.65-.82.73.73,0,0,0-.82.65.48.48,0,0,0,0,.17v6.26h-9.6v-6.26a.73.73,0,0,0-1.46,0h0v14.29a.74.74,0,0,0,1.47,0Z" transform="translate(-877.36 -528.36)"/><path class="cls-3" d="M953.8,549.19a7.65,7.65,0,0,1-3.89-1,5.46,5.46,0,0,1-2.15-2.19,7.85,7.85,0,0,1-.84-3.77v-8.64a1.06,1.06,0,0,1,1-1,1,1,0,0,1,1,1v8.68a5.78,5.78,0,0,0,.6,2.77,3.43,3.43,0,0,0,1.35,1.4,6.64,6.64,0,0,0,5.71,0,3.59,3.59,0,0,0,1.4-1.36,6,6,0,0,0,.61-2.79v-8.69a1.06,1.06,0,0,1,1-1,1,1,0,0,1,1,1v8.73a8.21,8.21,0,0,1-.86,3.77C959.05,547.51,957.38,549.19,953.8,549.19Z" transform="translate(-877.36 -528.36)"/><path class="cls-4" d="M953.8,549.5a8.08,8.08,0,0,1-4-1,5.9,5.9,0,0,1-2.26-2.31,8.1,8.1,0,0,1-.88-3.92v-8.68a1.37,1.37,0,0,1,1.32-1.35,1.35,1.35,0,0,1,1.34,1.36h0v8.68a5.57,5.57,0,0,0,.56,2.63,3.2,3.2,0,0,0,1.23,1.27,6.4,6.4,0,0,0,5.41,0,3.3,3.3,0,0,0,1.21-1.25,5.74,5.74,0,0,0,.57-2.64V533.6a1.35,1.35,0,0,1,2.7,0v8.68a8.32,8.32,0,0,1-.89,3.92C959.29,547.74,957.54,549.5,953.8,549.5ZM948,532.86a.75.75,0,0,0-.73.73v8.69a7.51,7.51,0,0,0,.81,3.63,5.21,5.21,0,0,0,2,2.06,7.37,7.37,0,0,0,3.74.91c3.44,0,5-1.6,5.75-3a7.76,7.76,0,0,0,.83-3.63v-8.63a.73.73,0,0,0-.72-.74h0a.75.75,0,0,0-.73.73v8.69a6.53,6.53,0,0,1-.64,2.94,4,4,0,0,1-1.46,1.5,6.26,6.26,0,0,1-3,.68,5.89,5.89,0,0,1-3-.69,3.71,3.71,0,0,1-1.47-1.52,6.17,6.17,0,0,1-.64-2.92v-8.68a.74.74,0,0,0-.73-.75Z" transform="translate(-877.36 -528.36)"/><path class="cls-5" d="M980.09,549.05a1.13,1.13,0,0,1-.81-.38l-10-12.12V548a1,1,0,0,1-2.09,0V533.67a1,1,0,0,1,.88-1.11,1,1,0,0,1,.95.45l10.06,12.1v-11.4a1,1,0,0,1,2,0V548a1.08,1.08,0,0,1-.69,1A1,1,0,0,1,980.09,549.05Z" transform="translate(-877.36 -528.36)"/><path class="cls-6" d="M980.09,549.35a1.44,1.44,0,0,1-1-.47l-9.51-11.48V548a1.36,1.36,0,0,1-1.35,1.35h0a1.32,1.32,0,0,1-1.34-1.3V533.67a1.34,1.34,0,0,1,1.36-1.34,1.36,1.36,0,0,1,1,.48l9.52,11.44V533.71a1.32,1.32,0,0,1,1.31-1.35h0a1.37,1.37,0,0,1,1.34,1.38V548a1.39,1.39,0,0,1-.88,1.26A1.43,1.43,0,0,1,980.09,549.35ZM969,535.74l10.59,12.78a.73.73,0,0,0,1,.11.72.72,0,0,0,.28-.57V533.77a.74.74,0,0,0-.65-.82.73.73,0,0,0-.82.65.48.48,0,0,0,0,.17V546l-10.6-12.76A.75.75,0,0,0,968,533a.7.7,0,0,0-.48.69V548a.74.74,0,0,0,1.47,0Z" transform="translate(-877.36 -528.36)"/><path class="cls-7" d="M996.15,549.39a8.8,8.8,0,0,1-6.06-2.53,8.5,8.5,0,0,1-1.83-2.69,8.35,8.35,0,0,1-.66-3.3,8.46,8.46,0,0,1,.68-3.29,8.33,8.33,0,0,1,1.86-2.68,8.61,8.61,0,0,1,6.08-2.49,8.36,8.36,0,0,1,4.85,1.55,1,1,0,0,1,.3,1.38.35.35,0,0,1,0,.08,1.07,1.07,0,0,1-1.46.25,6.13,6.13,0,0,0-3.64-1.18,6.65,6.65,0,0,0-4.61,1.89,6.4,6.4,0,0,0-1.42,2,6.28,6.28,0,0,0,1.38,7,6.49,6.49,0,0,0,4.58,1.92,6.16,6.16,0,0,0,2.63-.56,6.65,6.65,0,0,0,1.81-1.25v-4.32a1,1,0,0,1,2,0v4.77a1.11,1.11,0,0,1-.28.69,8.43,8.43,0,0,1-2.77,2A8.3,8.3,0,0,1,996.15,549.39Z" transform="translate(-877.36 -528.36)"/><path class="cls-8" d="M996.15,549.74a9,9,0,0,1-8.17-5.45,8.23,8.23,0,0,1-.68-3.42,8.7,8.7,0,0,1,.69-3.41,9,9,0,0,1,8.23-5.36,8.63,8.63,0,0,1,5,1.61,1.34,1.34,0,0,1,.34,1.85l0,0a1.37,1.37,0,0,1-1.88.33,5.86,5.86,0,0,0-3.47-1.12,6.05,6.05,0,0,0-2.42.49,6.31,6.31,0,0,0-3.36,3.25,5.69,5.69,0,0,0-.47,2.34,5.37,5.37,0,0,0,.47,2.33,6,6,0,0,0,1.32,2,6.15,6.15,0,0,0,4.36,1.83,6,6,0,0,0,2.5-.52,6.46,6.46,0,0,0,1.64-1.1v-4.2a1.35,1.35,0,0,1,2.7,0h0v4.72a1.46,1.46,0,0,1-.35.89,8.88,8.88,0,0,1-2.88,2.09A8.74,8.74,0,0,1,996.15,549.74Zm.07-17a8.35,8.35,0,0,0-5.87,2.4,8,8,0,0,0-2.44,5.75,7.85,7.85,0,0,0,.64,3.17,8,8,0,0,0,1.76,2.59,8.19,8.19,0,0,0,9.19,1.73,8.41,8.41,0,0,0,2.68-1.94.76.76,0,0,0,.19-.48v-4.79a.72.72,0,0,0-.71-.73h0a.71.71,0,0,0-.73.71v4.48l-.09.09a7.08,7.08,0,0,1-1.9,1.31,6.58,6.58,0,0,1-2.76.58,6.73,6.73,0,0,1-4.79-2,6.52,6.52,0,0,1-1.46-2.14,6.6,6.6,0,0,1,0-5.16,6.73,6.73,0,0,1,1.48-2.14,6.92,6.92,0,0,1,4.83-2,6.41,6.41,0,0,1,3.82,1.24.77.77,0,0,0,1-.18.75.75,0,0,0-.17-1A8.13,8.13,0,0,0,996.22,532.74Z" transform="translate(-877.36 -528.36)"/><path class="cls-9" d="M1010.17,549a1,1,0,0,1-1-1V533.75a1,1,0,0,1,1-1h6.19a5.78,5.78,0,0,1,1.23.17,5,5,0,0,1,2.39,1.22,4.76,4.76,0,0,1,1.08,1.67,6.4,6.4,0,0,1,.41,2.41,4.76,4.76,0,0,1-2.4,4.37,5.77,5.77,0,0,1-1.26.52,10.81,10.81,0,0,1,2.35,2.9c.54.92,1.13.92,1.21.92a1,1,0,0,1,.29,2.06h0a2.87,2.87,0,0,1-1.27-.14,3.79,3.79,0,0,1-2-1.8,8.41,8.41,0,0,0-2.66-2.9,4.29,4.29,0,0,0-1.31-.63,1,1,0,0,1,.17-2.06,7,7,0,0,0,3.39-.72,2.7,2.7,0,0,0,1.34-2.56,4.18,4.18,0,0,0-.46-2.06,2.6,2.6,0,0,0-1-1,3.35,3.35,0,0,0-1.48-.38h-5.14V548a1,1,0,0,1-1,1Z" transform="translate(-877.36 -528.36)"/><path class="cls-10" d="M1010.17,549.35a1.37,1.37,0,0,1-1.35-1.36V533.7a1.32,1.32,0,0,1,1.3-1.34h6.24a4.8,4.8,0,0,1,1.3.18,5.22,5.22,0,0,1,2.47,1.37,4.93,4.93,0,0,1,1.18,1.83,6.58,6.58,0,0,1,.44,2.53,5,5,0,0,1-2.56,4.63,8.5,8.5,0,0,1-.81.38,10.9,10.9,0,0,1,2,2.62c.42.71.83.76.94.76a1.35,1.35,0,0,1,.33,2.68h0a3.36,3.36,0,0,1-1.41-.16,4.16,4.16,0,0,1-2.19-1.94,8.06,8.06,0,0,0-2.56-2.79,4.24,4.24,0,0,0-1.19-.58,1.35,1.35,0,0,1,.26-2.68,6.92,6.92,0,0,0,3.29-.64,2.38,2.38,0,0,0,1.18-2.29,3.84,3.84,0,0,0-.42-1.91,2.53,2.53,0,0,0-.84-.85,3.21,3.21,0,0,0-1.41-.39h-4.83v12.94A1.37,1.37,0,0,1,1010.17,549.35Zm0-16.38a.71.71,0,0,0-.73.71V548a.74.74,0,1,0,1.47.17V534.43h5.45a3.86,3.86,0,0,1,1.72.48,3,3,0,0,1,1.07,1.07,4.49,4.49,0,0,1,.49,2.22,3,3,0,0,1-1.49,2.83,7.56,7.56,0,0,1-3.59.72.72.72,0,0,0-.74.65.7.7,0,0,0,.59.8h0a4.86,4.86,0,0,1,1.42.67,8.64,8.64,0,0,1,2.76,3,3.6,3.6,0,0,0,1.86,1.66,2.83,2.83,0,0,0,1.12.13.76.76,0,0,0,.61-.84.74.74,0,0,0-.83-.61h0a1.75,1.75,0,0,1-1.5-1.07,10.59,10.59,0,0,0-2.29-2.82l-.44-.38.56-.15a6.48,6.48,0,0,0,1.19-.49,4.47,4.47,0,0,0,2.24-4.11,6.18,6.18,0,0,0-.39-2.3,4.35,4.35,0,0,0-1-1.56,4.72,4.72,0,0,0-2.19-1.22,5.06,5.06,0,0,0-1.15-.16Z" transform="translate(-877.36 -528.36)"/><path class="cls-11" d="M1042.11,534.35l-5.45,8.11V548a1,1,0,0,1-2.08,0v-5.58l-5.41-8.14a1.07,1.07,0,0,1,.3-1.46,1,1,0,0,1,1.39.23l.05.07,4.71,7.11,4.76-7.09a1,1,0,0,1,1.37-.34l.07,0A1.08,1.08,0,0,1,1042.11,534.35Z" transform="translate(-877.36 -528.36)"/><path class="cls-12" d="M1035.61,549.39a1.36,1.36,0,0,1-1.35-1.35v-5.49l-5.35-8.06a1.35,1.35,0,1,1,2.24-1.5l4.47,6.75,4.51-6.71a1.33,1.33,0,0,1,1.85-.37h0a1.38,1.38,0,0,1,.38,1.88l-5.4,8V548a1.36,1.36,0,0,1-1.35,1.35ZM1030,533a.68.68,0,0,0-.4.12.74.74,0,0,0-.21,1l5.46,8.21V548a.76.76,0,0,0,.74.73.73.73,0,0,0,.73-.73v-5.64l5.5-8.19a.76.76,0,0,0-.2-1,.72.72,0,0,0-1,.2l-5,7.49-5-7.5A.72.72,0,0,0,1030,533Z" transform="translate(-877.36 -528.36)"/><path class="cls-13" d="M1001.62,542.28h-3.73a1.28,1.28,0,0,1,0-2.55h3.73a1.27,1.27,0,0,1,1.28,1.26h0A1.3,1.3,0,0,1,1001.62,542.28Z" transform="translate(-877.36 -528.36)"/><path class="cls-14" d="M915.43,539.94v.93a.66.66,0,0,0-.06.2,4.57,4.57,0,0,1-.9,2.11,3.6,3.6,0,0,1-3.73,1.44c-.56-.12-1.1-.36-1.65-.51a1.24,1.24,0,0,0-1.58.73,1.31,1.31,0,0,0-.06.27,3,3,0,0,0-.07.74c0,1.22,0,2.45-.08,3.68a2.93,2.93,0,0,1-2.18,2.76c-.28.07-.57.1-.85.15H880.64a2.18,2.18,0,0,0-.43-.05,2.61,2.61,0,0,1-2.67-2.12c-.07-.27-.12-.54-.18-.81V531.21a3.37,3.37,0,0,1,.12-.53,2.64,2.64,0,0,1,2.24-2.23c.3-.05.61-.05.92-.08h23.6a2.84,2.84,0,0,1,3,2.58,26,26,0,0,1,.16,2.79v1.94a1.23,1.23,0,0,0,1.23,1.23,1.25,1.25,0,0,0,.46-.09c.37-.09.72-.27,1.08-.35a5.13,5.13,0,0,1,1.51-.24,4,4,0,0,1,3.52,3A2.37,2.37,0,0,1,915.43,539.94Zm-23.21-9.84h-11.6c-1.26,0-1.6.34-1.62,1.6,0,3.79,0,7.59-.07,11.38v6.18c0,1.21.35,1.49,1.57,1.5h23.76c1,0,1.48-.47,1.5-1.5,0-1.23,0-2.47.08-3.71a3,3,0,0,1,2.82-3.17,3,3,0,0,1,1.6.36,2.67,2.67,0,0,0,1.86.26,2.62,2.62,0,0,0,1.72-3.12,2.33,2.33,0,0,0-2.59-2l-.1,0a7.62,7.62,0,0,0-1.25.41,3,3,0,0,1-3.74-1.5,3.51,3.51,0,0,1-.36-1.68c0-1.11,0-2.22.05-3.34a1.42,1.42,0,0,0-1-1.46,3.66,3.66,0,0,0-1.18-.2Z" transform="translate(-877.36 -528.36)"/><path class="cls-15" d="M910.35,540.43a1.22,1.22,0,0,1,1.1-1.17,1.29,1.29,0,0,1,1.13,1.16,1.26,1.26,0,0,1-1.14,1.18A1.2,1.2,0,0,1,910.35,540.43Z" transform="translate(-877.36 -528.36)"/><path class="cls-16" d="M896.68,535.91v9.32a.69.69,0,0,1-.68.68h0a.69.69,0,0,1-.68-.68v-4.08h-5.86v4.08a.67.67,0,0,1-.67.67h0a.68.68,0,0,1-.68-.68h0V535.9a.68.68,0,1,1,1.36,0h0v3.84h5.86V535.9a.68.68,0,0,1,1.36,0Z" transform="translate(-877.36 -528.36)"/><path class="cls-17" d="M896,546.07a.86.86,0,0,1-.85-.84v-3.92h-5.51v3.92a.86.86,0,0,1-.85.84.84.84,0,0,1-.84-.84h0v-9.33a.83.83,0,0,1,.84-.84h0a.83.83,0,0,1,.84.82v3.75h5.52V535.9a.85.85,0,0,1,1.69,0v9.35A.86.86,0,0,1,896,546.07Zm-6.7-5.1h6.2v4.25a.53.53,0,0,0,.5.52.51.51,0,0,0,.51-.51v-9.32a.52.52,0,0,0-.65-.36.51.51,0,0,0-.35.36V540H889.3v-4.08a.5.5,0,0,0-.49-.51h0a.5.5,0,0,0-.52.5h0v9.32a.51.51,0,0,0,.5.52h0a.53.53,0,0,0,.52-.51Z" transform="translate(-877.36 -528.36)"/><path class="cls-18" d="M940.47,533.54v14.29a1,1,0,1,1-2.08,0v-6.25h-9v6.25a1,1,0,0,1-2.09,0V533.54a1,1,0,0,1,2.08,0v6h9v-6a1,1,0,0,1,2.08-.1A.34.34,0,0,1,940.47,533.54Z" transform="translate(-877.36 -528.36)"/><path class="cls-18" d="M939.4,549.18a1.36,1.36,0,0,1-1.34-1.35v-6h-8.35v5.94a1.38,1.38,0,0,1-1.36,1.35,1.34,1.34,0,0,1-1.37-1.31h0V533.52a1.35,1.35,0,0,1,2.7,0h0v5.65H938v-5.63a1.34,1.34,0,0,1,1.35-1.35h0a1.33,1.33,0,0,1,1.34,1.32v14.32A1.36,1.36,0,0,1,939.4,549.18Zm-10.31-7.93h9.6v6.56a.76.76,0,0,0,.74.73.73.73,0,0,0,.73-.73h0V533.52a.74.74,0,0,0-.65-.82.73.73,0,0,0-.82.65.48.48,0,0,0,0,.17v6.26h-9.6v-6.26a.73.73,0,0,0-1.46,0h0v14.29a.74.74,0,0,0,1.47,0Z" transform="translate(-877.36 -528.36)"/><path class="cls-18" d="M953.8,549.19a7.65,7.65,0,0,1-3.89-1,5.46,5.46,0,0,1-2.15-2.19,7.85,7.85,0,0,1-.84-3.77v-8.64a1.06,1.06,0,0,1,1-1,1,1,0,0,1,1,1v8.68a5.78,5.78,0,0,0,.6,2.77,3.43,3.43,0,0,0,1.35,1.4,6.64,6.64,0,0,0,5.71,0,3.59,3.59,0,0,0,1.4-1.36,6,6,0,0,0,.61-2.79v-8.69a1.06,1.06,0,0,1,1-1,1,1,0,0,1,1,1v8.73a8.21,8.21,0,0,1-.86,3.77C959.05,547.51,957.38,549.19,953.8,549.19Z" transform="translate(-877.36 -528.36)"/><path class="cls-18" d="M953.8,549.5a8.08,8.08,0,0,1-4-1,5.9,5.9,0,0,1-2.26-2.31,8.1,8.1,0,0,1-.88-3.92v-8.68a1.37,1.37,0,0,1,1.32-1.35,1.35,1.35,0,0,1,1.34,1.36h0v8.68a5.57,5.57,0,0,0,.56,2.63,3.2,3.2,0,0,0,1.23,1.27,6.4,6.4,0,0,0,5.41,0,3.3,3.3,0,0,0,1.21-1.25,5.74,5.74,0,0,0,.57-2.64V533.6a1.35,1.35,0,0,1,2.7,0v8.68a8.32,8.32,0,0,1-.89,3.92C959.29,547.74,957.54,549.5,953.8,549.5ZM948,532.86a.75.75,0,0,0-.73.73v8.69a7.51,7.51,0,0,0,.81,3.63,5.21,5.21,0,0,0,2,2.06,7.37,7.37,0,0,0,3.74.91c3.44,0,5-1.6,5.75-3a7.76,7.76,0,0,0,.83-3.63v-8.63a.73.73,0,0,0-.72-.74h0a.75.75,0,0,0-.73.73v8.69a6.53,6.53,0,0,1-.64,2.94,4,4,0,0,1-1.46,1.5,6.26,6.26,0,0,1-3,.68,5.89,5.89,0,0,1-3-.69,3.71,3.71,0,0,1-1.47-1.52,6.17,6.17,0,0,1-.64-2.92v-8.68a.74.74,0,0,0-.73-.75Z" transform="translate(-877.36 -528.36)"/><path class="cls-18" d="M980.09,549.05a1.13,1.13,0,0,1-.81-.38l-10-12.12V548a1,1,0,0,1-2.09,0V533.67a1,1,0,0,1,.88-1.11,1,1,0,0,1,.95.45l10.06,12.1v-11.4a1,1,0,0,1,2,0V548a1.08,1.08,0,0,1-.69,1A1,1,0,0,1,980.09,549.05Z" transform="translate(-877.36 -528.36)"/><path class="cls-18" d="M980.09,549.35a1.44,1.44,0,0,1-1-.47l-9.51-11.48V548a1.36,1.36,0,0,1-1.35,1.35h0a1.32,1.32,0,0,1-1.34-1.3V533.67a1.34,1.34,0,0,1,1.36-1.34,1.36,1.36,0,0,1,1,.48l9.52,11.44V533.71a1.32,1.32,0,0,1,1.31-1.35h0a1.37,1.37,0,0,1,1.34,1.38V548a1.39,1.39,0,0,1-.88,1.26A1.43,1.43,0,0,1,980.09,549.35ZM969,535.74l10.59,12.78a.73.73,0,0,0,1,.11.72.72,0,0,0,.28-.57V533.77a.74.74,0,0,0-.65-.82.73.73,0,0,0-.82.65.48.48,0,0,0,0,.17V546l-10.6-12.76A.75.75,0,0,0,968,533a.7.7,0,0,0-.48.69V548a.74.74,0,0,0,1.47,0Z" transform="translate(-877.36 -528.36)"/><path class="cls-18" d="M996.15,549.39a8.8,8.8,0,0,1-6.06-2.53,8.5,8.5,0,0,1-1.83-2.69,8.35,8.35,0,0,1-.66-3.3,8.46,8.46,0,0,1,.68-3.29,8.33,8.33,0,0,1,1.86-2.68,8.61,8.61,0,0,1,6.08-2.49,8.36,8.36,0,0,1,4.85,1.55,1,1,0,0,1,.3,1.38.35.35,0,0,1,0,.08,1.07,1.07,0,0,1-1.46.25,6.13,6.13,0,0,0-3.64-1.18,6.65,6.65,0,0,0-4.61,1.89,6.4,6.4,0,0,0-1.42,2,6.28,6.28,0,0,0,1.38,7,6.49,6.49,0,0,0,4.58,1.92,6.16,6.16,0,0,0,2.63-.56,6.65,6.65,0,0,0,1.81-1.25v-4.32a1,1,0,0,1,2,0v4.77a1.11,1.11,0,0,1-.28.69,8.43,8.43,0,0,1-2.77,2A8.3,8.3,0,0,1,996.15,549.39Z" transform="translate(-877.36 -528.36)"/><path class="cls-18" d="M996.15,549.74a9,9,0,0,1-8.17-5.45,8.23,8.23,0,0,1-.68-3.42,8.7,8.7,0,0,1,.69-3.41,9,9,0,0,1,8.23-5.36,8.63,8.63,0,0,1,5,1.61,1.34,1.34,0,0,1,.34,1.85l0,0a1.37,1.37,0,0,1-1.88.33,5.86,5.86,0,0,0-3.47-1.12,6.05,6.05,0,0,0-2.42.49,6.31,6.31,0,0,0-3.36,3.25,5.69,5.69,0,0,0-.47,2.34,5.37,5.37,0,0,0,.47,2.33,6,6,0,0,0,1.32,2,6.15,6.15,0,0,0,4.36,1.83,6,6,0,0,0,2.5-.52,6.46,6.46,0,0,0,1.64-1.1v-4.2a1.35,1.35,0,0,1,2.7,0h0v4.72a1.46,1.46,0,0,1-.35.89,8.88,8.88,0,0,1-2.88,2.09A8.74,8.74,0,0,1,996.15,549.74Zm.07-17a8.35,8.35,0,0,0-5.87,2.4,8,8,0,0,0-2.44,5.75,7.85,7.85,0,0,0,.64,3.17,8,8,0,0,0,1.76,2.59,8.19,8.19,0,0,0,9.19,1.73,8.41,8.41,0,0,0,2.68-1.94.76.76,0,0,0,.19-.48v-4.79a.72.72,0,0,0-.71-.73h0a.71.71,0,0,0-.73.71v4.48l-.09.09a7.08,7.08,0,0,1-1.9,1.31,6.58,6.58,0,0,1-2.76.58,6.73,6.73,0,0,1-4.79-2,6.52,6.52,0,0,1-1.46-2.14,6.6,6.6,0,0,1,0-5.16,6.73,6.73,0,0,1,1.48-2.14,6.92,6.92,0,0,1,4.83-2,6.41,6.41,0,0,1,3.82,1.24.77.77,0,0,0,1-.18.75.75,0,0,0-.17-1A8.13,8.13,0,0,0,996.22,532.74Z" transform="translate(-877.36 -528.36)"/><path class="cls-18" d="M1010.17,549a1,1,0,0,1-1-1V533.75a1,1,0,0,1,1-1h6.19a5.78,5.78,0,0,1,1.23.17,5,5,0,0,1,2.39,1.22,4.76,4.76,0,0,1,1.08,1.67,6.4,6.4,0,0,1,.41,2.41,4.76,4.76,0,0,1-2.4,4.37,5.77,5.77,0,0,1-1.26.52,10.81,10.81,0,0,1,2.35,2.9c.54.92,1.13.92,1.21.92a1,1,0,0,1,.29,2.06h0a2.87,2.87,0,0,1-1.27-.14,3.79,3.79,0,0,1-2-1.8,8.41,8.41,0,0,0-2.66-2.9,4.29,4.29,0,0,0-1.31-.63,1,1,0,0,1,.17-2.06,7,7,0,0,0,3.39-.72,2.7,2.7,0,0,0,1.34-2.56,4.18,4.18,0,0,0-.46-2.06,2.6,2.6,0,0,0-1-1,3.35,3.35,0,0,0-1.48-.38h-5.14V548a1,1,0,0,1-1,1Z" transform="translate(-877.36 -528.36)"/><path class="cls-18" d="M1010.17,549.35a1.37,1.37,0,0,1-1.35-1.36V533.7a1.32,1.32,0,0,1,1.3-1.34h6.24a4.8,4.8,0,0,1,1.3.18,5.22,5.22,0,0,1,2.47,1.37,4.93,4.93,0,0,1,1.18,1.83,6.58,6.58,0,0,1,.44,2.53,5,5,0,0,1-2.56,4.63,8.5,8.5,0,0,1-.81.38,10.9,10.9,0,0,1,2,2.62c.42.71.83.76.94.76a1.35,1.35,0,0,1,.33,2.68h0a3.36,3.36,0,0,1-1.41-.16,4.16,4.16,0,0,1-2.19-1.94,8.06,8.06,0,0,0-2.56-2.79,4.24,4.24,0,0,0-1.19-.58,1.35,1.35,0,0,1,.26-2.68,6.92,6.92,0,0,0,3.29-.64,2.38,2.38,0,0,0,1.18-2.29,3.84,3.84,0,0,0-.42-1.91,2.53,2.53,0,0,0-.84-.85,3.21,3.21,0,0,0-1.41-.39h-4.83v12.94A1.37,1.37,0,0,1,1010.17,549.35Zm0-16.38a.71.71,0,0,0-.73.71V548a.74.74,0,1,0,1.47.17V534.43h5.45a3.86,3.86,0,0,1,1.72.48,3,3,0,0,1,1.07,1.07,4.49,4.49,0,0,1,.49,2.22,3,3,0,0,1-1.49,2.83,7.56,7.56,0,0,1-3.59.72.72.72,0,0,0-.74.65.7.7,0,0,0,.59.8h0a4.86,4.86,0,0,1,1.42.67,8.64,8.64,0,0,1,2.76,3,3.6,3.6,0,0,0,1.86,1.66,2.83,2.83,0,0,0,1.12.13.76.76,0,0,0,.61-.84.74.74,0,0,0-.83-.61h0a1.75,1.75,0,0,1-1.5-1.07,10.59,10.59,0,0,0-2.29-2.82l-.44-.38.56-.15a6.48,6.48,0,0,0,1.19-.49,4.47,4.47,0,0,0,2.24-4.11,6.18,6.18,0,0,0-.39-2.3,4.35,4.35,0,0,0-1-1.56,4.72,4.72,0,0,0-2.19-1.22,5.06,5.06,0,0,0-1.15-.16Z" transform="translate(-877.36 -528.36)"/><path class="cls-18" d="M1042.11,534.35l-5.45,8.11V548a1,1,0,0,1-2.08,0v-5.58l-5.41-8.14a1.07,1.07,0,0,1,.3-1.46,1,1,0,0,1,1.39.23l.05.07,4.71,7.11,4.76-7.09a1,1,0,0,1,1.37-.34l.07,0A1.08,1.08,0,0,1,1042.11,534.35Z" transform="translate(-877.36 -528.36)"/><path class="cls-18" d="M1035.61,549.39a1.36,1.36,0,0,1-1.35-1.35v-5.49l-5.35-8.06a1.35,1.35,0,1,1,2.24-1.5l4.47,6.75,4.51-6.71a1.33,1.33,0,0,1,1.85-.37h0a1.38,1.38,0,0,1,.38,1.88l-5.4,8V548a1.36,1.36,0,0,1-1.35,1.35ZM1030,533a.68.68,0,0,0-.4.12.74.74,0,0,0-.21,1l5.46,8.21V548a.76.76,0,0,0,.74.73.73.73,0,0,0,.73-.73v-5.64l5.5-8.19a.76.76,0,0,0-.2-1,.72.72,0,0,0-1,.2l-5,7.49-5-7.5A.72.72,0,0,0,1030,533Z" transform="translate(-877.36 -528.36)"/><path class="cls-18" d="M1001.62,542.28h-3.73a1.28,1.28,0,0,1,0-2.55h3.73a1.27,1.27,0,0,1,1.28,1.26h0A1.3,1.3,0,0,1,1001.62,542.28Z" transform="translate(-877.36 -528.36)"/><path class="cls-18" d="M915.43,539.94v.93a.66.66,0,0,0-.06.2,4.57,4.57,0,0,1-.9,2.11,3.6,3.6,0,0,1-3.73,1.44c-.56-.12-1.1-.36-1.65-.51a1.24,1.24,0,0,0-1.58.73,1.31,1.31,0,0,0-.06.27,3,3,0,0,0-.07.74c0,1.22,0,2.45-.08,3.68a2.93,2.93,0,0,1-2.18,2.76c-.28.07-.57.1-.85.15H880.64a2.18,2.18,0,0,0-.43-.05,2.61,2.61,0,0,1-2.67-2.12c-.07-.27-.12-.54-.18-.81V531.21a3.37,3.37,0,0,1,.12-.53,2.64,2.64,0,0,1,2.24-2.23c.3-.05.61-.05.92-.08h23.6a2.84,2.84,0,0,1,3,2.58,26,26,0,0,1,.16,2.79v1.94a1.23,1.23,0,0,0,1.23,1.23,1.25,1.25,0,0,0,.46-.09c.37-.09.72-.27,1.08-.35a5.13,5.13,0,0,1,1.51-.24,4,4,0,0,1,3.52,3A2.37,2.37,0,0,1,915.43,539.94Zm-23.21-9.84h-11.6c-1.26,0-1.6.34-1.62,1.6,0,3.79,0,7.59-.07,11.38v6.18c0,1.21.35,1.49,1.57,1.5h23.76c1,0,1.48-.47,1.5-1.5,0-1.23,0-2.47.08-3.71a3,3,0,0,1,2.82-3.17,3,3,0,0,1,1.6.36,2.67,2.67,0,0,0,1.86.26,2.62,2.62,0,0,0,1.72-3.12,2.33,2.33,0,0,0-2.59-2l-.1,0a7.62,7.62,0,0,0-1.25.41,3,3,0,0,1-3.74-1.5,3.51,3.51,0,0,1-.36-1.68c0-1.11,0-2.22.05-3.34a1.42,1.42,0,0,0-1-1.46,3.66,3.66,0,0,0-1.18-.2Z" transform="translate(-877.36 -528.36)"/><path class="cls-18" d="M910.35,540.43a1.22,1.22,0,0,1,1.1-1.17,1.29,1.29,0,0,1,1.13,1.16,1.26,1.26,0,0,1-1.14,1.18A1.2,1.2,0,0,1,910.35,540.43Z" transform="translate(-877.36 -528.36)"/><path class="cls-18" d="M896.68,535.91v9.32a.69.69,0,0,1-.68.68h0a.69.69,0,0,1-.68-.68v-4.08h-5.86v4.08a.67.67,0,0,1-.67.67h0a.68.68,0,0,1-.68-.68h0V535.9a.68.68,0,1,1,1.36,0h0v3.84h5.86V535.9a.68.68,0,0,1,1.36,0Z" transform="translate(-877.36 -528.36)"/><path class="cls-18" d="M896,546.07a.86.86,0,0,1-.85-.84v-3.92h-5.51v3.92a.86.86,0,0,1-.85.84.84.84,0,0,1-.84-.84h0v-9.33a.83.83,0,0,1,.84-.84h0a.83.83,0,0,1,.84.82v3.75h5.52V535.9a.85.85,0,0,1,1.69,0v9.35A.86.86,0,0,1,896,546.07Zm-6.7-5.1h6.2v4.25a.53.53,0,0,0,.5.52.51.51,0,0,0,.51-.51v-9.32a.52.52,0,0,0-.65-.36.51.51,0,0,0-.35.36V540H889.3v-4.08a.5.5,0,0,0-.49-.51h0a.5.5,0,0,0-.52.5h0v9.32a.51.51,0,0,0,.5.52h0a.53.53,0,0,0,.52-.51Z" transform="translate(-877.36 -528.36)"/></svg>